<?xml version="1.0" encoding="utf-8"?>
<svg xmlns="http://www.w3.org/2000/svg" style="display: none;">
  <symbol id="ChatGPT" viewBox="0 0 24 24"><g fill="none" stroke="currentColor" stroke-linecap="round" stroke-linejoin="round" stroke-width="1.5" color="currentColor"><path d="M11.745 14.85L6.905 12V7c0-2.21 1.825-4 4.076-4c1.397 0 2.63.69 3.365 1.741"/><path d="M9.6 19.18A4.1 4.1 0 0 0 13.02 21c2.25 0 4.076-1.79 4.076-4v-5L12.16 9.097"/><path d="M9.452 13.5V7.67l4.412-2.5c1.95-1.105 4.443-.45 5.569 1.463a3.93 3.93 0 0 1 .076 3.866"/><path d="M4.49 13.5a3.93 3.93 0 0 0 .075 3.866c1.126 1.913 3.62 2.568 5.57 1.464l4.412-2.5l.096-5.596"/><path d="M17.096 17.63a4.09 4.09 0 0 0 3.357-1.996c1.125-1.913.457-4.36-1.492-5.464l-4.413-2.5l-5.059 2.755"/><path d="M6.905 6.37a4.09 4.09 0 0 0-3.358 1.996c-1.126 1.913-.458 4.36 1.492 5.464l4.413 2.5l5.048-2.75"/></g></symbol>
  <symbol id="Spotify" viewBox="0 0 256 256"><path fill="#1ed760" d="M128 0C57.308 0 0 57.309 0 128c0 70.696 57.309 128 128 128c70.697 0 128-57.304 128-128C256 57.314 198.697.007 127.998.007zm58.699 184.614c-2.293 3.76-7.215 4.952-10.975 2.644c-30.053-18.357-67.885-22.515-112.44-12.335a7.98 7.98 0 0 1-9.552-6.007a7.97 7.97 0 0 1 6-9.553c48.76-11.14 90.583-6.344 124.323 14.276c3.76 2.308 4.952 7.215 2.644 10.975m15.667-34.853c-2.89 4.695-9.034 6.178-13.726 3.289c-34.406-21.148-86.853-27.273-127.548-14.92c-5.278 1.594-10.852-1.38-12.454-6.649c-1.59-5.278 1.386-10.842 6.655-12.446c46.485-14.106 104.275-7.273 143.787 17.007c4.692 2.89 6.175 9.034 3.286 13.72zm1.345-36.293C162.457 88.964 94.394 86.71 55.007 98.666c-6.325 1.918-13.014-1.653-14.93-7.978c-1.917-6.328 1.65-13.012 7.98-14.935C93.27 62.027 168.434 64.68 215.929 92.876c5.702 3.376 7.566 10.724 4.188 16.405c-3.362 5.69-10.73 7.565-16.4 4.187z"/></symbol>
  <symbol id="HBO Max" viewBox="0 0 24 24"><path fill="currentColor" d="M7.042 16.896H4.414v-3.754H2.708v3.754H.01L0 7.22h2.708v3.6h1.706v-3.6h2.628zm12.043.046C21.795 16.94 24 14.689 24 11.978a4.89 4.89 0 0 0-4.915-4.92c-2.707-.002-4.09 1.991-4.432 2.795c.003-1.207-1.187-2.632-2.58-2.634H7.59v9.674l4.181.001c1.686 0 2.886-1.46 2.888-2.713c.385.788 1.72 2.762 4.427 2.76zm-7.665-3.936c.387 0 .692.382.692.817s-.305.817-.692.817h-1.33v-1.634zm.005-3.633c.387 0 .692.382.692.817c0 .436-.305.818-.692.818h-1.33V9.373zm1.77 2.607c.305-.039.813-.387.992-.61c-.063.276-.068 1.074.006 1.35c-.204-.314-.688-.701-.998-.74m3.43 0a2.462 2.462 0 1 1 4.924 0a2.462 2.462 0 0 1-4.925 0zm2.462 1.936a1.936 1.936 0 1 0 0-3.872a1.936 1.936 0 0 0 0 3.872"/></symbol>
  <symbol id="Netflix" viewBox="0 0 24 24"><path fill="currentColor" d="M4.75 14.39c-.3.054-.607.07-.924.113L2.86 11.63v2.996c-.3.033-.575.076-.86.119v-5.49h.802L3.9 12.37V9.255h.85zm1.663-3.125c.327 0 .829-.016 1.13-.016v.858c-.375 0-.814 0-1.13.016v1.276c.496-.032.992-.075 1.494-.091v.825l-2.339.188V9.255h2.339v.858H6.413zm4.634-1.152h-.876v3.945c-.285 0-.57 0-.844.011v-3.956H8.45v-.858h2.597zm1.373 1.093h1.156v.858H12.42v1.946h-.83V9.255h2.36v.858h-1.53zm2.903 2.053c.48.011.966.049 1.436.075v.848a53 53 0 0 0-2.28-.113V9.255h.844zm2.148.982c.27.016.554.032.829.064v-5.05h-.829zM22 9.255l-1.072 2.61L22 14.746c-.317-.043-.633-.102-.95-.156l-.607-1.587l-.618 1.458c-.306-.053-.601-.07-.907-.112l1.087-2.514l-.982-2.58h.908l.554 1.443l.591-1.442z"/></symbol>
  <symbol id="Apple Music" viewBox="0 0 24 24"><path fill="currentColor" d="M10.374 14.349v-3.254h-.021l-1.31 3.254h-.5l-1.311-3.254H7.21v3.254h-.614V9.928h.78l1.405 3.523h.024l1.402-3.523h.783v4.421zm4.012 0h-.623v-.545h-.015c-.175.386-.497.603-.981.603c-.69 0-1.111-.456-1.111-1.195v-2.086h.65v1.958c0 .49.229.753.677.753c.47 0 .753-.33.753-.833v-1.878h.65zm1.781-3.281c.738 0 1.216.416 1.238 1.01h-.611c-.037-.312-.262-.508-.627-.508c-.352 0-.587.175-.587.432c0 .202.145.34.488.42l.515.12c.647.152.894.41.894.875c0 .589-.54.993-1.285.993c-.792 0-1.268-.395-1.328-1.008h.644q.088.504.684.503c.39 0 .632-.166.632-.43c0-.208-.118-.33-.464-.41l-.515-.122c-.602-.141-.9-.435-.9-.904c0-.576.494-.971 1.222-.971m1.76-.794a.375.375 0 1 1 .75 0c0 .208-.165.38-.373.38a.38.38 0 0 1-.376-.38m.052.852h.65v3.223h-.65zm3.395 1.109c-.066-.343-.32-.616-.744-.616c-.502 0-.833.426-.833 1.118c0 .708.334 1.119.84 1.119c.4 0 .662-.224.737-.598H22c-.07.686-.608 1.152-1.37 1.152c-.905 0-1.495-.631-1.495-1.673c0-1.023.59-1.67 1.49-1.67c.815 0 1.312.534 1.369 1.168zM4.608 10.359c-.168.201-.435.36-.702.337c-.035-.272.099-.561.25-.738a1.04 1.04 0 0 1 .696-.367c.029.284-.081.561-.244.769m.24.39c.151.012.585.06.863.477c-.023.018-.515.307-.51.914c.007.725.626.966.631.973c-.005.017-.098.341-.323.677c-.197.295-.4.584-.724.59c-.312.005-.417-.189-.775-.189s-.475.183-.77.194c-.312.012-.55-.312-.746-.607c-.405-.595-.712-1.68-.295-2.41c.202-.365.573-.595.972-.601c.307-.006.59.206.775.206s.515-.247.903-.224"/></symbol>
  <symbol id="Youtube Premium" viewBox="0 0 24 24"><path fill="currentColor" d="m10 15l5.19-3L10 9zm11.56-7.83c.13.47.22 1.1.28 1.9c.07.8.1 1.49.1 2.09L22 12c0 2.19-.16 3.8-.44 4.83c-.25.9-.83 1.48-1.73 1.73c-.47.13-1.33.22-2.65.28c-1.3.07-2.49.1-3.59.1L12 19c-4.19 0-6.8-.16-7.83-.44c-.9-.25-1.48-.83-1.73-1.73c-.13-.47-.22-1.1-.28-1.9c-.07-.8-.1-1.49-.1-2.09L2 12c0-2.19.16-3.8.44-4.83c.25-.9.83-1.48 1.73-1.73c.47-.13 1.33-.22 2.65-.28c1.3-.07 2.49-.1 3.59-.1L12 5c4.19 0 6.8.16 7.83.44c.9.25 1.48.83 1.73 1.73"/></symbol>
</svg>