<svg xmlns="http://www.w3.org/2000/svg" xmlns:xlink="http://www.w3.org/1999/xlink"><symbol id="CIRCLE_BADGE" viewBox="0 0 16 16"><path fill-rule="evenodd" d="M15 8c0 .982-.472 1.854-1.202 2.402a2.995 2.995 0 01-.848 2.547 2.995 2.995 0 01-2.548.849A2.996 2.996 0 018 15a2.996 2.996 0 01-2.402-1.202 2.995 2.995 0 01-2.547-.848 2.995 2.995 0 01-.849-2.548A2.996 2.996 0 011 8c0-.982.472-1.854 1.202-2.402a2.995 2.995 0 01.848-2.547 2.995 2.995 0 012.548-.849A2.995 2.995 0 018 1c.982 0 1.854.472 2.402 1.202a2.995 2.995 0 012.547.848c.695.695.978 1.645.849 2.548A2.996 2.996 0 0115 8zm-3.291-2.843a.75.75 0 01.135 1.052l-4.25 5.5a.75.75 0 01-1.151.043l-2.25-2.5a.75.75 0 111.114-1.004l1.65 1.832 3.7-4.789a.75.75 0 011.052-.134z" clip-rule="evenodd"/></symbol><symbol id="DOLAR_SIGN" viewBox="0 0 16 16"><path d="M6.375 5.5h.875v1.75h-.875a.875.875 0 110-1.75zm2.375 5V8.75h.875a.875.875 0 010 1.75H8.75z"/><path fill-rule="evenodd" d="M15 8A7 7 0 111 8a7 7 0 0114 0zM7.25 3.75a.75.75 0 011.5 0V4h2.5a.75.75 0 010 1.5h-2.5v1.75h.875a2.375 2.375 0 110 4.75H8.75v.25a.75.75 0 01-1.5 0V12h-2.5a.75.75 0 010-1.5h2.5V8.75h-.875a2.375 2.375 0 110-4.75h.875v-.25z" clip-rule="evenodd"/></symbol></svg>